<svg width="224" height="60" viewBox="0 0 224 60" fill="none" xmlns="http://www.w3.org/2000/svg">
<path d="M31.8408 15.9378L32.0449 15.9778L32.249 15.9339L52.3271 11.5667L47.7383 22.4261L39.1504 23.9691L38.5322 24.0804L38.3643 24.6859L31.9512 47.7493L24.2822 24.639L24.0928 24.0667L23.498 23.9671L14.2578 22.4193L9.65527 11.5276L31.8408 15.9378Z" fill="#5F3BD6" stroke="#000B41" stroke-width="2"/>
<path d="M102.5 9.10003L86.9 51.22H76.7L62 9.76002L71 11.68L81.86 42.64L93 11.68L102.5 9.10003Z" fill="#000B41"/>
<path d="M115.696 17.98V51.22H107.296V21.22L115.696 17.98Z" fill="#000B41"/>
<path d="M132.395 23.14C133.475 21.38 134.875 20 136.595 19C138.355 18 140.355 17.5 142.595 17.5V26.32H140.375C137.735 26.32 135.735 26.94 134.375 28.18C133.055 29.42 132.395 31.58 132.395 34.66V51.22H123.995V21.22L132.395 17.98V23.14Z" fill="#000B41"/>
<path d="M158.033 24.88V40.96C158.033 42.08 158.293 42.9 158.813 43.42C159.373 43.9 160.293 44.14 161.573 44.14H165.473V51.22H160.193C153.113 51.22 149.573 47.78 149.573 40.9V26.32H145.613V20.18L149.573 17.98L149.5 12.18L158 9.17999L158.033 17.98H165.473V24.88H158.033Z" fill="#000B41"/>
<path d="M179.915 17.98V51.22H171.515V21.22L179.915 17.98Z" fill="#000B41"/>
<path d="M206.574 51.22L199.734 40.9L193.674 51.22H184.674L195.534 34.54L185.5 18.28L195.534 20.18L200.814 28.24L205.014 20.18L214.5 17.98L205.014 34.54L216.054 51.22H206.574Z" fill="#000B41"/>
<path fill-rule="evenodd" clip-rule="evenodd" d="M115.696 13.1V9.1L107.296 12.34V16.6L115.696 13.1Z" fill="#000B41"/>
<path fill-rule="evenodd" clip-rule="evenodd" d="M179.915 13V9.00001L171.515 12.24V16.5L179.915 13Z" fill="#000B41"/>
</svg>
